<svg xmlns="http://www.w3.org/2000/svg" xmlns:xlink="http://www.w3.org/1999/xlink" contentStyleType="text/css" height="938px" preserveAspectRatio="none" style="width:1786px;height:938px;background:#FFFFFF;" version="1.1" viewBox="0 0 1786 938" width="1786px" zoomAndPan="magnify"><title>44.3 Incremental Cloud-to-Edge downlink</title><defs/><g><text fill="#111827" font-family="Arial" font-size="14" font-weight="bold" lengthAdjust="spacing" textLength="274.5859" x="757.3213" y="28.1318">44.3 Incremental Cloud-to-Edge downlink</text><line style="stroke:#181818;stroke-width:0.5;stroke-dasharray:5.0,5.0;" x1="130" x2="130" y1="104.1973" y2="860.0181"/><line style="stroke:#181818;stroke-width:0.5;stroke-dasharray:5.0,5.0;" x1="363.1914" x2="363.1914" y1="104.1973" y2="860.0181"/><line style="stroke:#181818;stroke-width:0.5;stroke-dasharray:5.0,5.0;" x1="535.5215" x2="535.5215" y1="104.1973" y2="860.0181"/><line style="stroke:#181818;stroke-width:0.5;stroke-dasharray:5.0,5.0;" x1="728.3145" x2="728.3145" y1="104.1973" y2="860.0181"/><line style="stroke:#181818;stroke-width:0.5;stroke-dasharray:5.0,5.0;" x1="889.2588" x2="889.2588" y1="104.1973" y2="860.0181"/><line style="stroke:#181818;stroke-width:0.5;stroke-dasharray:5.0,5.0;" x1="1077.1758" x2="1077.1758" y1="104.1973" y2="860.0181"/><line style="stroke:#181818;stroke-width:0.5;stroke-dasharray:5.0,5.0;" x1="1316.9517" x2="1316.9517" y1="104.1973" y2="860.0181"/><line style="stroke:#181818;stroke-width:0.5;stroke-dasharray:5.0,5.0;" x1="1581.4639" x2="1581.4639" y1="104.1973" y2="860.0181"/><line style="stroke:#181818;stroke-width:0.5;stroke-dasharray:5.0,5.0;" x1="1708.7324" x2="1708.7324" y1="104.1973" y2="860.0181"/><rect fill="#E8F3F6" height="30.0986" rx="2.5" ry="2.5" style="stroke:#334155;stroke-width:0.5;" width="250.5645" x="5" y="73.0986"/><text fill="#111827" font-family="Arial" font-size="14" lengthAdjust="spacing" textLength="236.5645" x="12" y="93.2305">Business service / Edge event listener</text><rect fill="#E8F3F6" height="30.0986" rx="2.5" ry="2.5" style="stroke:#334155;stroke-width:0.5;" width="250.5645" x="5" y="859.0181"/><text fill="#111827" font-family="Arial" font-size="14" lengthAdjust="spacing" textLength="236.5645" x="12" y="879.1499">Business service / Edge event listener</text><text fill="#111827" font-family="Arial" font-size="14" lengthAdjust="spacing" textLength="153.3301" x="284.1914" y="101.2305">PostgreSQL edge_event</text><path d="M345.8564,52.0986 C345.8564,42.0986 363.8564,42.0986 363.8564,42.0986 C363.8564,42.0986 381.8564,42.0986 381.8564,52.0986 L381.8564,78.0986 C381.8564,88.0986 363.8564,88.0986 363.8564,88.0986 C363.8564,88.0986 345.8564,88.0986 345.8564,78.0986 L345.8564,52.0986 " fill="#E2E2F0" style="stroke:#181818;stroke-width:1.5;"/><path d="M345.8564,52.0986 C345.8564,62.0986 363.8564,62.0986 363.8564,62.0986 C363.8564,62.0986 381.8564,62.0986 381.8564,52.0986 " fill="none" style="stroke:#181818;stroke-width:1.5;"/><text fill="#111827" font-family="Arial" font-size="14" lengthAdjust="spacing" textLength="153.3301" x="284.1914" y="872.1499">PostgreSQL edge_event</text><path d="M345.8564,885.1167 C345.8564,875.1167 363.8564,875.1167 363.8564,875.1167 C363.8564,875.1167 381.8564,875.1167 381.8564,885.1167 L381.8564,911.1167 C381.8564,921.1167 363.8564,921.1167 363.8564,921.1167 C363.8564,921.1167 345.8564,921.1167 345.8564,911.1167 L345.8564,885.1167 " fill="#E2E2F0" style="stroke:#181818;stroke-width:1.5;"/><path d="M345.8564,885.1167 C345.8564,895.1167 363.8564,895.1167 363.8564,895.1167 C363.8564,895.1167 381.8564,895.1167 381.8564,885.1167 " fill="none" style="stroke:#181818;stroke-width:1.5;"/><rect fill="#E8F3F6" height="30.0986" rx="2.5" ry="2.5" style="stroke:#334155;stroke-width:0.5;" width="165.7236" x="453.5215" y="73.0986"/><text fill="#111827" font-family="Arial" font-size="14" lengthAdjust="spacing" textLength="151.7236" x="460.5215" y="93.2305">DefaultTbClusterService</text><rect fill="#E8F3F6" height="30.0986" rx="2.5" ry="2.5" style="stroke:#334155;stroke-width:0.5;" width="165.7236" x="453.5215" y="859.0181"/><text fill="#111827" font-family="Arial" font-size="14" lengthAdjust="spacing" textLength="151.7236" x="460.5215" y="879.1499">DefaultTbClusterService</text><path d="M662.3145,78.0986 L795.2588,78.0986 C800.2588,78.0986 800.2588,91.1479 800.2588,91.1479 C800.2588,91.1479 800.2588,104.1973 795.2588,104.1973 L662.3145,104.1973 C657.3145,104.1973 657.3145,91.1479 657.3145,91.1479 C657.3145,91.1479 657.3145,78.0986 662.3145,78.0986 " fill="#E2E2F0" style="stroke:#181818;stroke-width:0.5;"/><path d="M795.2588,78.0986 C790.2588,78.0986 790.2588,91.1479 790.2588,91.1479 C790.2588,104.1973 795.2588,104.1973 795.2588,104.1973 " fill="none" style="stroke:#181818;stroke-width:0.5;"/><text fill="#111827" font-family="Arial" font-size="14" lengthAdjust="spacing" textLength="122.9443" x="662.3145" y="96.2305">TB Core notification</text><path d="M662.3145,859.0181 L795.2588,859.0181 C800.2588,859.0181 800.2588,872.0674 800.2588,872.0674 C800.2588,872.0674 800.2588,885.1167 795.2588,885.1167 L662.3145,885.1167 C657.3145,885.1167 657.3145,872.0674 657.3145,872.0674 C657.3145,872.0674 657.3145,859.0181 662.3145,859.0181 " fill="#E2E2F0" style="stroke:#181818;stroke-width:0.5;"/><path d="M795.2588,859.0181 C790.2588,859.0181 790.2588,872.0674 790.2588,872.0674 C790.2588,885.1167 795.2588,885.1167 795.2588,885.1167 " fill="none" style="stroke:#181818;stroke-width:0.5;"/><text fill="#111827" font-family="Arial" font-size="14" lengthAdjust="spacing" textLength="122.9443" x="662.3145" y="877.1499">TB Core notification</text><rect fill="#E8F3F6" height="30.0986" rx="2.5" ry="2.5" style="stroke:#334155;stroke-width:0.5;" width="159.5166" x="810.2588" y="73.0986"/><text fill="#111827" font-family="Arial" font-size="14" lengthAdjust="spacing" textLength="145.5166" x="817.2588" y="93.2305">AppActor / TenantActor</text><rect fill="#E8F3F6" height="30.0986" rx="2.5" ry="2.5" style="stroke:#334155;stroke-width:0.5;" width="159.5166" x="810.2588" y="859.0181"/><text fill="#111827" font-family="Arial" font-size="14" lengthAdjust="spacing" textLength="145.5166" x="817.2588" y="879.1499">AppActor / TenantActor</text><rect fill="#E8F3F6" height="30.0986" rx="2.5" ry="2.5" style="stroke:#334155;stroke-width:0.5;" width="123.7168" x="1016.1758" y="73.0986"/><text fill="#111827" font-family="Arial" font-size="14" lengthAdjust="spacing" textLength="109.7168" x="1023.1758" y="93.2305">EdgeGrpcService</text><rect fill="#E8F3F6" height="30.0986" rx="2.5" ry="2.5" style="stroke:#334155;stroke-width:0.5;" width="123.7168" x="1016.1758" y="859.0181"/><text fill="#111827" font-family="Arial" font-size="14" lengthAdjust="spacing" textLength="109.7168" x="1023.1758" y="879.1499">EdgeGrpcService</text><rect fill="#E8F3F6" height="30.0986" rx="2.5" ry="2.5" style="stroke:#334155;stroke-width:0.5;" width="126.8408" x="1253.9517" y="73.0986"/><text fill="#111827" font-family="Arial" font-size="14" lengthAdjust="spacing" textLength="112.8408" x="1260.9517" y="93.2305">EdgeGrpcSession</text><rect fill="#E8F3F6" height="30.0986" rx="2.5" ry="2.5" style="stroke:#334155;stroke-width:0.5;" width="126.8408" x="1253.9517" y="859.0181"/><text fill="#111827" font-family="Arial" font-size="14" lengthAdjust="spacing" textLength="112.8408" x="1260.9517" y="879.1499">EdgeGrpcSession</text><rect fill="#E8F3F6" height="30.0986" rx="2.5" ry="2.5" style="stroke:#334155;stroke-width:0.5;" width="83.2686" x="1540.4639" y="73.0986"/><text fill="#111827" font-family="Arial" font-size="14" lengthAdjust="spacing" textLength="69.2686" x="1547.4639" y="93.2305">Edge client</text><rect fill="#E8F3F6" height="30.0986" rx="2.5" ry="2.5" style="stroke:#334155;stroke-width:0.5;" width="83.2686" x="1540.4639" y="859.0181"/><text fill="#111827" font-family="Arial" font-size="14" lengthAdjust="spacing" textLength="69.2686" x="1547.4639" y="879.1499">Edge client</text><text fill="#111827" font-family="Arial" font-size="14" lengthAdjust="spacing" textLength="145.4961" x="1633.7324" y="101.2305">Server attributes cursor</text><path d="M1691.4805,52.0986 C1691.4805,42.0986 1709.4805,42.0986 1709.4805,42.0986 C1709.4805,42.0986 1727.4805,42.0986 1727.4805,52.0986 L1727.4805,78.0986 C1727.4805,88.0986 1709.4805,88.0986 1709.4805,88.0986 C1709.4805,88.0986 1691.4805,88.0986 1691.4805,78.0986 L1691.4805,52.0986 " fill="#E2E2F0" style="stroke:#181818;stroke-width:1.5;"/><path d="M1691.4805,52.0986 C1691.4805,62.0986 1709.4805,62.0986 1709.4805,62.0986 C1709.4805,62.0986 1727.4805,62.0986 1727.4805,52.0986 " fill="none" style="stroke:#181818;stroke-width:1.5;"/><text fill="#111827" font-family="Arial" font-size="14" lengthAdjust="spacing" textLength="145.4961" x="1633.7324" y="872.1499">Server attributes cursor</text><path d="M1691.4805,885.1167 C1691.4805,875.1167 1709.4805,875.1167 1709.4805,875.1167 C1709.4805,875.1167 1727.4805,875.1167 1727.4805,885.1167 L1727.4805,911.1167 C1727.4805,921.1167 1709.4805,921.1167 1709.4805,921.1167 C1709.4805,921.1167 1691.4805,921.1167 1691.4805,911.1167 L1691.4805,885.1167 " fill="#E2E2F0" style="stroke:#181818;stroke-width:1.5;"/><path d="M1691.4805,885.1167 C1691.4805,895.1167 1709.4805,895.1167 1709.4805,895.1167 C1709.4805,895.1167 1727.4805,895.1167 1727.4805,885.1167 " fill="none" style="stroke:#181818;stroke-width:1.5;"/><polygon fill="#253746" points="351.8564,131.146,361.8564,135.146,351.8564,139.146,355.8564,135.146" style="stroke:#253746;stroke-width:1;"/><line style="stroke:#253746;stroke-width:1.5;" x1="130.2822" x2="357.8564" y1="135.146" y2="135.146"/><text fill="#111827" font-family="Arial" font-size="13" lengthAdjust="spacing" textLength="209.5742" x="137.2822" y="130.3911">insert EdgeEvent after entity change</text><polygon fill="#253746" points="524.3833,160.0947,534.3833,164.0947,524.3833,168.0947,528.3833,164.0947" style="stroke:#253746;stroke-width:1;"/><line style="stroke:#253746;stroke-width:1.5;stroke-dasharray:2.0,2.0;" x1="363.8564" x2="530.3833" y1="164.0947" y2="164.0947"/><text fill="#111827" font-family="Arial" font-size="13" lengthAdjust="spacing" textLength="114.8862" x="370.8564" y="159.3398">save future success</text><polygon fill="#253746" points="716.7866,189.0435,726.7866,193.0435,716.7866,197.0435,720.7866,193.0435" style="stroke:#253746;stroke-width:1;"/><line style="stroke:#253746;stroke-width:1.5;" x1="536.3833" x2="722.7866" y1="193.0435" y2="193.0435"/><text fill="#111827" font-family="Arial" font-size="13" lengthAdjust="spacing" textLength="168.4033" x="543.3833" y="188.2886">onEdgeEventUpdate(edgeId)</text><polygon fill="#253746" points="878.0171,217.9922,888.0171,221.9922,878.0171,225.9922,882.0171,221.9922" style="stroke:#253746;stroke-width:1;"/><line style="stroke:#253746;stroke-width:1.5;" x1="728.7866" x2="884.0171" y1="221.9922" y2="221.9922"/><text fill="#111827" font-family="Arial" font-size="13" lengthAdjust="spacing" textLength="130.0825" x="735.7866" y="217.2373">EdgeEventUpdateMsg</text><polygon fill="#253746" points="1066.0342,246.9409,1076.0342,250.9409,1066.0342,254.9409,1070.0342,250.9409" style="stroke:#253746;stroke-width:1;"/><line style="stroke:#253746;stroke-width:1.5;" x1="890.0171" x2="1072.0342" y1="250.9409" y2="250.9409"/><text fill="#111827" font-family="Arial" font-size="13" lengthAdjust="spacing" textLength="164.0171" x="897.0171" y="246.186">onToEdgeSessionMsg(msg)</text><line style="stroke:#253746;stroke-width:1.5;" x1="1078.0342" x2="1120.0342" y1="279.8896" y2="279.8896"/><line style="stroke:#253746;stroke-width:1.5;" x1="1120.0342" x2="1120.0342" y1="279.8896" y2="292.8896"/><line style="stroke:#253746;stroke-width:1.5;" x1="1079.0342" x2="1120.0342" y1="292.8896" y2="292.8896"/><polygon fill="#253746" points="1089.0342,288.8896,1079.0342,292.8896,1089.0342,296.8896,1085.0342,292.8896" style="stroke:#253746;stroke-width:1;"/><text fill="#111827" font-family="Arial" font-size="13" lengthAdjust="spacing" textLength="123.5698" x="1085.0342" y="275.1348">edge-service.execute</text><line style="stroke:#253746;stroke-width:1.5;" x1="1078.0342" x2="1120.0342" y1="321.8384" y2="321.8384"/><line style="stroke:#253746;stroke-width:1.5;" x1="1120.0342" x2="1120.0342" y1="321.8384" y2="334.8384"/><line style="stroke:#253746;stroke-width:1.5;" x1="1079.0342" x2="1120.0342" y1="334.8384" y2="334.8384"/><polygon fill="#253746" points="1089.0342,330.8384,1079.0342,334.8384,1089.0342,338.8384,1085.0342,334.8384" style="stroke:#253746;stroke-width:1;"/><text fill="#111827" font-family="Arial" font-size="13" lengthAdjust="spacing" textLength="194.0288" x="1085.0342" y="317.0835">sessionNewEvents[edgeId] = true</text><polygon fill="#253746" points="1305.3721,359.7871,1315.3721,363.7871,1305.3721,367.7871,1309.3721,363.7871" style="stroke:#253746;stroke-width:1;"/><line style="stroke:#253746;stroke-width:1.5;" x1="1078.0342" x2="1311.3721" y1="363.7871" y2="363.7871"/><text fill="#111827" font-family="Arial" font-size="13" lengthAdjust="spacing" textLength="124.2808" x="1085.0342" y="359.0322">processEdgeEvents()</text><polygon fill="#253746" points="1697.4805,388.7358,1707.4805,392.7358,1697.4805,396.7358,1701.4805,392.7358" style="stroke:#253746;stroke-width:1;"/><line style="stroke:#253746;stroke-width:1.5;" x1="1317.3721" x2="1703.4805" y1="392.7358" y2="392.7358"/><text fill="#111827" font-family="Arial" font-size="13" lengthAdjust="spacing" textLength="212.4624" x="1324.3721" y="387.981">find(queueStartTs, queueStartSeqId)</text><polygon fill="#253746" points="1328.3721,417.6846,1318.3721,421.6846,1328.3721,425.6846,1324.3721,421.6846" style="stroke:#253746;stroke-width:1;"/><line style="stroke:#253746;stroke-width:1.5;stroke-dasharray:2.0,2.0;" x1="1322.3721" x2="1708.4805" y1="421.6846" y2="421.6846"/><text fill="#111827" font-family="Arial" font-size="13" lengthAdjust="spacing" textLength="61.4072" x="1334.3721" y="416.9297">cursor pair</text><polygon fill="#253746" points="374.8564,446.6333,364.8564,450.6333,374.8564,454.6333,370.8564,450.6333" style="stroke:#253746;stroke-width:1;"/><line style="stroke:#253746;stroke-width:1.5;" x1="368.8564" x2="1316.3721" y1="450.6333" y2="450.6333"/><text fill="#111827" font-family="Arial" font-size="13" lengthAdjust="spacing" textLength="130.0698" x="380.8564" y="445.8784">fetch page after cursor</text><polygon fill="#253746" points="1305.3721,475.582,1315.3721,479.582,1305.3721,483.582,1309.3721,479.582" style="stroke:#253746;stroke-width:1;"/><line style="stroke:#253746;stroke-width:1.5;stroke-dasharray:2.0,2.0;" x1="363.8564" x2="1311.3721" y1="479.582" y2="479.582"/><text fill="#111827" font-family="Arial" font-size="13" lengthAdjust="spacing" textLength="99.0171" x="370.8564" y="474.8271">List&lt;EdgeEvent&gt;</text><line style="stroke:#253746;stroke-width:1.5;" x1="1317.3721" x2="1359.3721" y1="508.5308" y2="508.5308"/><line style="stroke:#253746;stroke-width:1.5;" x1="1359.3721" x2="1359.3721" y1="508.5308" y2="521.5308"/><line style="stroke:#253746;stroke-width:1.5;" x1="1318.3721" x2="1359.3721" y1="521.5308" y2="521.5308"/><polygon fill="#253746" points="1328.3721,517.5308,1318.3721,521.5308,1328.3721,525.5308,1324.3721,521.5308" style="stroke:#253746;stroke-width:1;"/><text fill="#111827" font-family="Arial" font-size="13" lengthAdjust="spacing" textLength="170.5044" x="1324.3721" y="503.7759">convertToDownlinkMsgsPack</text><line style="stroke:#253746;stroke-width:1.5;" x1="1317.3721" x2="1359.3721" y1="550.4795" y2="550.4795"/><line style="stroke:#253746;stroke-width:1.5;" x1="1359.3721" x2="1359.3721" y1="550.4795" y2="563.4795"/><line style="stroke:#253746;stroke-width:1.5;" x1="1318.3721" x2="1359.3721" y1="563.4795" y2="563.4795"/><polygon fill="#253746" points="1328.3721,559.4795,1318.3721,563.4795,1328.3721,567.4795,1324.3721,563.4795" style="stroke:#253746;stroke-width:1;"/><text fill="#111827" font-family="Arial" font-size="13" lengthAdjust="spacing" textLength="250.7261" x="1324.3721" y="545.7246">pendingMsgsMap.put(downlinkMsgId, msg)</text><polygon fill="#253746" points="1570.0981,588.4282,1580.0981,592.4282,1570.0981,596.4282,1574.0981,592.4282" style="stroke:#253746;stroke-width:1;"/><line style="stroke:#253746;stroke-width:1.5;" x1="1317.3721" x2="1576.0981" y1="592.4282" y2="592.4282"/><text fill="#111827" font-family="Arial" font-size="13" lengthAdjust="spacing" textLength="161.8525" x="1324.3721" y="587.6733">ResponseMsg.downlinkMsg</text><line style="stroke:#253746;stroke-width:1.5;" x1="1582.0981" x2="1624.0981" y1="621.377" y2="621.377"/><line style="stroke:#253746;stroke-width:1.5;" x1="1624.0981" x2="1624.0981" y1="621.377" y2="634.377"/><line style="stroke:#253746;stroke-width:1.5;" x1="1583.0981" x2="1624.0981" y1="634.377" y2="634.377"/><polygon fill="#253746" points="1593.0981,630.377,1583.0981,634.377,1593.0981,638.377,1589.0981,634.377" style="stroke:#253746;stroke-width:1;"/><text fill="#111827" font-family="Arial" font-size="13" lengthAdjust="spacing" textLength="104.0635" x="1589.0981" y="616.6221">apply entity/action</text><polygon fill="#253746" points="1328.3721,659.3257,1318.3721,663.3257,1328.3721,667.3257,1324.3721,663.3257" style="stroke:#253746;stroke-width:1;"/><line style="stroke:#253746;stroke-width:1.5;stroke-dasharray:2.0,2.0;" x1="1322.3721" x2="1581.0981" y1="663.3257" y2="663.3257"/><text fill="#111827" font-family="Arial" font-size="13" lengthAdjust="spacing" textLength="214.2334" x="1334.3721" y="658.5708">DownlinkResponse(success=true, id)</text><line style="stroke:#253746;stroke-width:1.5;" x1="1317.3721" x2="1359.3721" y1="692.2744" y2="692.2744"/><line style="stroke:#253746;stroke-width:1.5;" x1="1359.3721" x2="1359.3721" y1="692.2744" y2="705.2744"/><line style="stroke:#253746;stroke-width:1.5;" x1="1318.3721" x2="1359.3721" y1="705.2744" y2="705.2744"/><polygon fill="#253746" points="1328.3721,701.2744,1318.3721,705.2744,1328.3721,709.2744,1324.3721,705.2744" style="stroke:#253746;stroke-width:1;"/><text fill="#111827" font-family="Arial" font-size="13" lengthAdjust="spacing" textLength="168.3525" x="1324.3721" y="687.5195">pendingMsgsMap.remove(id)</text><polygon fill="#253746" points="1697.4805,730.2231,1707.4805,734.2231,1697.4805,738.2231,1701.4805,734.2231" style="stroke:#253746;stroke-width:1;"/><line style="stroke:#253746;stroke-width:1.5;" x1="1317.3721" x2="1703.4805" y1="734.2231" y2="734.2231"/><text fill="#111827" font-family="Arial" font-size="13" lengthAdjust="spacing" textLength="237.7642" x="1324.3721" y="729.4683">save new queueStartTs/queueStartSeqId</text><polygon fill="#253746" points="1328.3721,759.1719,1318.3721,763.1719,1328.3721,767.1719,1324.3721,763.1719" style="stroke:#253746;stroke-width:1;"/><line style="stroke:#253746;stroke-width:1.5;stroke-dasharray:2.0,2.0;" x1="1322.3721" x2="1708.4805" y1="763.1719" y2="763.1719"/><text fill="#111827" font-family="Arial" font-size="13" lengthAdjust="spacing" textLength="88.1436" x="1334.3721" y="758.417">Future success</text><polygon fill="#253746" points="1089.0342,788.1206,1079.0342,792.1206,1089.0342,796.1206,1085.0342,792.1206" style="stroke:#253746;stroke-width:1;"/><line style="stroke:#253746;stroke-width:1.5;stroke-dasharray:2.0,2.0;" x1="1083.0342" x2="1316.3721" y1="792.1206" y2="792.1206"/><text fill="#111827" font-family="Arial" font-size="13" lengthAdjust="spacing" textLength="215.3379" x="1095.0342" y="787.3657">processEdgeEvents future completes</text><path d="M1250,805.1206 L1250,844.1206 L1776,844.1206 L1776,815.1206 L1766,805.1206 L1250,805.1206 " fill="#FFF3DF" style="stroke:#9A5B13;stroke-width:0.5;"/><path d="M1766,805.1206 L1766,815.1206 L1776,815.1206 L1766,805.1206 " fill="#FFF3DF" style="stroke:#9A5B13;stroke-width:0.5;"/><text fill="#111827" font-family="Arial" font-size="13" lengthAdjust="spacing" textLength="390.9585" x="1313.1592" y="822.3145">Sending, Edge ACK and cursor persistence are not one transaction.</text><text fill="#111827" font-family="Arial" font-size="13" lengthAdjust="spacing" textLength="267.3696" x="1313.1592" y="837.2632">Crash before cursor save can replay the page.</text><!--SRC=[ZLNRJXin47tVhnZHbo0bGI7S6XMa44Y52WYQzAcgAiSxIImsjh6zKFw-uqiscoLKpPFNS-RCvSmuJhW2uUYesuSRoGskK3fMmAXGPTvngdETBn1ozIeB8P-op3u9gPbXAvWn_hGmgfJvI1NAmATn-DKGTid8KSW5p5bXiMR9SSxAmesLTFTiXJ0qWXMxxOcyr-kT7PxM84DZr6io7XxtJuzEciRfKl0dYTP2htjSCpumumGNcabtgKoE9h7q-qUzuu-0pMAlpyRzySbkyB_IlbSEjw9-7XvVzlfDn8xUzg_63TJxE9dUP05xbwKLeNwBvaLmX0C8Qk8BQGo5i0ubcZrW5jRGB6UEpPX5s7jGrYqCJXvl0SdhT_0Au6j_ijknhg9YqzceA8dNJ6B8W4zNsNE99H5FBs6a389KJim5Pque6N2FthvDEzHwo1rLU01Jb7GLlW8wd1fP-FA-6ithqTFv8w2rw_3f_1u8l11LxVHTQv8dHmFCEIDcfKCBl3GsPJWAnoohTEXSfDuDG4WInGMwS0LiJYq2EWdt1dp99CM9OEYGN-hX02nxGPYNhgGEsf9pBreoUlxGmm4eMJ7_q9Gkjho6D_b-5W0U6VitW0RmpYwoQFAWr3nFE5KUcPf4gDRABlQp1DZ2-b2TD7DT_8ES6hCJQ2FPFRx6Id_697_1EJXJDdm2T03QA5zpbRLj-II2qUDYpmSm5p9lXO6RED9pQjkm-PhWisz5n8RsLlHHFj1Cc3hjMhOvEhuaAmr552pYwqfLLBUqO5-gF2_gT9jmIjBykAcwIYyiDTO-qFRlH6kKEJsd7dF7T5UNhfLl_6xoDYHDDdbJ-05yHwiL3Ho1kZM7B0ntXM9Q5szf0WyOzskP4FKSreckELjf2C-zOcqG-Vx_f4x_C-e5MmtqMhmmun9VeIxWGKE_dVADjnUZugvFtRi9MgyJLojT82rnbj7RXA3yQYUATbhcIQoZ7L_IuUWRC9bNKuF6XbULPfR55uuM1scOcRInezriP9XTmWpd_WrCZg5WpYGOr0Lx0xV4C6JTZC9v6lmB]--></g></svg>