<svg xmlns="http://www.w3.org/2000/svg" xmlns:xlink="http://www.w3.org/1999/xlink" contentStyleType="text/css" height="1031px" preserveAspectRatio="none" style="width:1566px;height:1031px;background:#FFFFFF;" version="1.1" viewBox="0 0 1566 1031" width="1566px" zoomAndPan="magnify"><title>Cassandra - Dispatcher, Driver, Timeout and Callback Pools</title><defs/><g><text fill="#000000" font-family="sans-serif" font-size="14" font-weight="bold" lengthAdjust="spacing" textLength="399.123" x="585.2373" y="31.0439">Cassandra - Dispatcher, Driver, Timeout and Callback Pools</text><rect fill="none" height="595.9624" style="stroke:#475569;stroke-width:1.5;" width="1314.5137" x="10" y="158.9946"/><rect fill="none" height="373.3901" style="stroke:#475569;stroke-width:1.5;" width="1015.2974" x="299.2163" y="374.5669"/><rect fill="none" height="195.5723" style="stroke:#475569;stroke-width:1.5;" width="740.9644" x="563.5493" y="545.3848"/><rect fill="none" height="164.772" style="stroke:#475569;stroke-width:1.5;" width="1261.3813" x="299.2163" y="768.957"/><line style="stroke:#64748B;stroke-width:0.5;stroke-dasharray:5.0,5.0;" x1="60" x2="60" y1="110.2402" y2="950.729"/><line style="stroke:#64748B;stroke-width:0.5;stroke-dasharray:5.0,5.0;" x1="225.3276" x2="225.3276" y1="110.2402" y2="950.729"/><line style="stroke:#64748B;stroke-width:0.5;stroke-dasharray:5.0,5.0;" x1="386.2163" x2="386.2163" y1="110.2402" y2="950.729"/><line style="stroke:#64748B;stroke-width:0.5;stroke-dasharray:5.0,5.0;" x1="650.5493" x2="650.5493" y1="110.2402" y2="950.729"/><line style="stroke:#64748B;stroke-width:0.5;stroke-dasharray:5.0,5.0;" x1="805.3833" x2="805.3833" y1="110.2402" y2="950.729"/><line style="stroke:#64748B;stroke-width:0.5;stroke-dasharray:5.0,5.0;" x1="953.7485" x2="953.7485" y1="110.2402" y2="950.729"/><line style="stroke:#64748B;stroke-width:0.5;stroke-dasharray:5.0,5.0;" x1="1164.0039" x2="1164.0039" y1="110.2402" y2="950.729"/><line style="stroke:#64748B;stroke-width:0.5;stroke-dasharray:5.0,5.0;" x1="1256.8105" x2="1256.8105" y1="110.2402" y2="950.729"/><rect fill="#EAF2F5" height="33.1201" rx="2.5" ry="2.5" style="stroke:#334155;stroke-width:0.5;" width="81.6826" x="20" y="76.1201"/><text fill="#111827" font-family="sans-serif" font-size="14" lengthAdjust="spacing" textLength="67.6826" x="27" y="99.1641">DAO caller</text><rect fill="#EAF2F5" height="33.1201" rx="2.5" ry="2.5" style="stroke:#334155;stroke-width:0.5;" width="81.6826" x="20" y="949.729"/><text fill="#111827" font-family="sans-serif" font-size="14" lengthAdjust="spacing" textLength="67.6826" x="27" y="972.7729">DAO caller</text><path d="M157.3276,81.1201 L294.2163,81.1201 C299.2163,81.1201 299.2163,95.6802 299.2163,95.6802 C299.2163,95.6802 299.2163,110.2402 294.2163,110.2402 L157.3276,110.2402 C152.3276,110.2402 152.3276,95.6802 152.3276,95.6802 C152.3276,95.6802 152.3276,81.1201 157.3276,81.1201 " fill="#E2E2F0" style="stroke:#181818;stroke-width:0.5;"/><path d="M294.2163,81.1201 C289.2163,81.1201 289.2163,95.6802 289.2163,95.6802 C289.2163,110.2402 294.2163,110.2402 294.2163,110.2402 " fill="none" style="stroke:#181818;stroke-width:0.5;"/><text fill="#000000" font-family="sans-serif" font-size="14" lengthAdjust="spacing" textLength="126.8887" x="157.3276" y="102.1641">bounded task deque</text><path d="M157.3276,949.729 L294.2163,949.729 C299.2163,949.729 299.2163,964.2891 299.2163,964.2891 C299.2163,964.2891 299.2163,978.8491 294.2163,978.8491 L157.3276,978.8491 C152.3276,978.8491 152.3276,964.2891 152.3276,964.2891 C152.3276,964.2891 152.3276,949.729 157.3276,949.729 " fill="#E2E2F0" style="stroke:#181818;stroke-width:0.5;"/><path d="M294.2163,949.729 C289.2163,949.729 289.2163,964.2891 289.2163,964.2891 C289.2163,978.8491 294.2163,978.8491 294.2163,978.8491 " fill="none" style="stroke:#181818;stroke-width:0.5;"/><text fill="#000000" font-family="sans-serif" font-size="14" lengthAdjust="spacing" textLength="126.8887" x="157.3276" y="970.7729">bounded task deque</text><rect fill="#EAF2F5" height="33.1201" rx="2.5" ry="2.5" style="stroke:#334155;stroke-width:0.5;" width="154.0479" x="309.2163" y="76.1201"/><text fill="#111827" font-family="sans-serif" font-size="14" lengthAdjust="spacing" textLength="140.0479" x="316.2163" y="99.1641">nosql-Write-dispatcher</text><rect fill="#EAF2F5" height="33.1201" rx="2.5" ry="2.5" style="stroke:#334155;stroke-width:0.5;" width="154.0479" x="309.2163" y="949.729"/><text fill="#111827" font-family="sans-serif" font-size="14" lengthAdjust="spacing" textLength="140.0479" x="316.2163" y="972.7729">nosql-Write-dispatcher</text><rect fill="#EAF2F5" height="33.1201" rx="2.5" ry="2.5" style="stroke:#334155;stroke-width:0.5;" width="154.834" x="573.5493" y="76.1201"/><text fill="#111827" font-family="sans-serif" font-size="14" lengthAdjust="spacing" textLength="140.834" x="580.5493" y="99.1641">DataStax driver Future</text><rect fill="#EAF2F5" height="33.1201" rx="2.5" ry="2.5" style="stroke:#334155;stroke-width:0.5;" width="154.834" x="573.5493" y="949.729"/><text fill="#111827" font-family="sans-serif" font-size="14" lengthAdjust="spacing" textLength="140.834" x="580.5493" y="972.7729">DataStax driver Future</text><rect fill="#EAF2F5" height="33.1201" rx="2.5" ry="2.5" style="stroke:#334155;stroke-width:0.5;" width="135.3652" x="738.3833" y="76.1201"/><text fill="#111827" font-family="sans-serif" font-size="14" lengthAdjust="spacing" textLength="121.3652" x="745.3833" y="99.1641">nosql-Write-timeout</text><rect fill="#EAF2F5" height="33.1201" rx="2.5" ry="2.5" style="stroke:#334155;stroke-width:0.5;" width="135.3652" x="738.3833" y="949.729"/><text fill="#111827" font-family="sans-serif" font-size="14" lengthAdjust="spacing" textLength="121.3652" x="745.3833" y="972.7729">nosql-Write-timeout</text><rect fill="#EAF2F5" height="33.1201" rx="2.5" ry="2.5" style="stroke:#334155;stroke-width:0.5;" width="140.0342" x="883.7485" y="76.1201"/><text fill="#111827" font-family="sans-serif" font-size="14" lengthAdjust="spacing" textLength="126.0342" x="890.7485" y="99.1641">nosql-Write-callback</text><rect fill="#EAF2F5" height="33.1201" rx="2.5" ry="2.5" style="stroke:#334155;stroke-width:0.5;" width="140.0342" x="883.7485" y="949.729"/><text fill="#111827" font-family="sans-serif" font-size="14" lengthAdjust="spacing" textLength="126.0342" x="890.7485" y="972.7729">nosql-Write-callback</text><rect fill="#EAF2F5" height="33.1201" rx="2.5" ry="2.5" style="stroke:#334155;stroke-width:0.5;" width="91.8066" x="1119.0039" y="76.1201"/><text fill="#111827" font-family="sans-serif" font-size="14" lengthAdjust="spacing" textLength="77.8066" x="1126.0039" y="99.1641">caller Future</text><rect fill="#EAF2F5" height="33.1201" rx="2.5" ry="2.5" style="stroke:#334155;stroke-width:0.5;" width="91.8066" x="1119.0039" y="949.729"/><text fill="#111827" font-family="sans-serif" font-size="14" lengthAdjust="spacing" textLength="77.8066" x="1126.0039" y="972.7729">caller Future</text><text fill="#000000" font-family="sans-serif" font-size="14" lengthAdjust="spacing" textLength="67.7031" x="1220.8105" y="107.1641">Cassandra</text><path d="M1239.6621,55.1201 C1239.6621,45.1201 1257.6621,45.1201 1257.6621,45.1201 C1257.6621,45.1201 1275.6621,45.1201 1275.6621,55.1201 L1275.6621,81.1201 C1275.6621,91.1201 1257.6621,91.1201 1257.6621,91.1201 C1257.6621,91.1201 1239.6621,91.1201 1239.6621,81.1201 L1239.6621,55.1201 " fill="#E2E2F0" style="stroke:#181818;stroke-width:1.5;"/><path d="M1239.6621,55.1201 C1239.6621,65.1201 1257.6621,65.1201 1257.6621,65.1201 C1257.6621,65.1201 1275.6621,65.1201 1275.6621,55.1201 " fill="none" style="stroke:#181818;stroke-width:1.5;"/><text fill="#000000" font-family="sans-serif" font-size="14" lengthAdjust="spacing" textLength="67.7031" x="1220.8105" y="965.7729">Cassandra</text><path d="M1239.6621,978.8491 C1239.6621,968.8491 1257.6621,968.8491 1257.6621,968.8491 C1257.6621,968.8491 1275.6621,968.8491 1275.6621,978.8491 L1275.6621,1004.8491 C1275.6621,1014.8491 1257.6621,1014.8491 1257.6621,1014.8491 C1257.6621,1014.8491 1239.6621,1014.8491 1239.6621,1004.8491 L1239.6621,978.8491 " fill="#E2E2F0" style="stroke:#181818;stroke-width:1.5;"/><path d="M1239.6621,978.8491 C1239.6621,988.8491 1257.6621,988.8491 1257.6621,988.8491 C1257.6621,988.8491 1275.6621,988.8491 1275.6621,978.8491 " fill="none" style="stroke:#181818;stroke-width:1.5;"/><polygon fill="#1F2937" points="213.772,139.9946,223.772,143.9946,213.772,147.9946,217.772,143.9946" style="stroke:#1F2937;stroke-width:1;"/><line style="stroke:#1F2937;stroke-width:1;" x1="60.8413" x2="219.772" y1="143.9946" y2="143.9946"/><text fill="#000000" font-family="sans-serif" font-size="13" lengthAdjust="spacing" textLength="70.7891" x="67.8413" y="139.1382">submit(task)</text><path d="M10,158.9946 L70.1709,158.9946 L70.1709,168.749 L60.1709,178.749 L10,178.749 L10,158.9946 " fill="#F8FAFC" style="stroke:#475569;stroke-width:1.5;"/><rect fill="none" height="595.9624" style="stroke:#475569;stroke-width:1.5;" width="1314.5137" x="10" y="158.9946"/><text fill="#000000" font-family="sans-serif" font-size="13" font-weight="bold" lengthAdjust="spacing" textLength="15.1709" x="25" y="174.8926">alt</text><text fill="#111827" font-family="sans-serif" font-size="11" font-weight="bold" lengthAdjust="spacing" textLength="171.123" x="85.1709" y="173.6006">[tenant rate limited or queue full]</text><polygon fill="#1F2937" points="1152.9072,198.5264,1162.9072,202.5264,1152.9072,206.5264,1156.9072,202.5264" style="stroke:#1F2937;stroke-width:1;"/><line style="stroke:#1F2937;stroke-width:1;" x1="225.772" x2="1158.9072" y1="202.5264" y2="202.5264"/><text fill="#000000" font-family="sans-serif" font-size="13" lengthAdjust="spacing" textLength="147.3989" x="232.772" y="197.6699">setException immediately</text><polygon fill="#1F2937" points="71.8413,230.2808,61.8413,234.2808,71.8413,238.2808,67.8413,234.2808" style="stroke:#1F2937;stroke-width:1;"/><line style="stroke:#1F2937;stroke-width:1;stroke-dasharray:2.0,2.0;" x1="65.8413" x2="1163.9072" y1="234.2808" y2="234.2808"/><text fill="#000000" font-family="sans-serif" font-size="13" lengthAdjust="spacing" textLength="72.2617" x="77.8413" y="229.4243">failed Future</text><line style="stroke:#475569;stroke-width:1;stroke-dasharray:2.0,2.0;" x1="10" x2="1324.5137" y1="243.2808" y2="243.2808"/><text fill="#111827" font-family="sans-serif" font-size="11" font-weight="bold" lengthAdjust="spacing" textLength="55.0161" x="15" y="255.8867">[accepted]</text><polygon fill="#1F2937" points="71.8413,279.0581,61.8413,283.0581,71.8413,287.0581,67.8413,283.0581" style="stroke:#1F2937;stroke-width:1;"/><line style="stroke:#1F2937;stroke-width:1;stroke-dasharray:2.0,2.0;" x1="65.8413" x2="224.772" y1="283.0581" y2="283.0581"/><text fill="#000000" font-family="sans-serif" font-size="13" lengthAdjust="spacing" textLength="140.9307" x="77.8413" y="278.2017">pending wrapped Future</text><polygon fill="#1F2937" points="236.772,310.8125,226.772,314.8125,236.772,318.8125,232.772,314.8125" style="stroke:#1F2937;stroke-width:1;"/><line style="stroke:#1F2937;stroke-width:1;" x1="230.772" x2="385.2402" y1="314.8125" y2="314.8125"/><text fill="#000000" font-family="sans-serif" font-size="13" lengthAdjust="spacing" textLength="52.0254" x="242.772" y="309.9561">take task</text><line style="stroke:#1F2937;stroke-width:1;" x1="386.2402" x2="428.2402" y1="346.5669" y2="346.5669"/><line style="stroke:#1F2937;stroke-width:1;" x1="428.2402" x2="428.2402" y1="346.5669" y2="359.5669"/><line style="stroke:#1F2937;stroke-width:1;" x1="387.2402" x2="428.2402" y1="359.5669" y2="359.5669"/><polygon fill="#1F2937" points="397.2402,355.5669,387.2402,359.5669,397.2402,363.5669,393.2402,359.5669" style="stroke:#1F2937;stroke-width:1;"/><text fill="#000000" font-family="sans-serif" font-size="13" lengthAdjust="spacing" textLength="237.6943" x="393.2402" y="341.7104">remaining = createTime + maxWait - now</text><path d="M299.2163,374.5669 L359.3872,374.5669 L359.3872,384.3213 L349.3872,394.3213 L299.2163,394.3213 L299.2163,374.5669 " fill="#F8FAFC" style="stroke:#475569;stroke-width:1.5;"/><rect fill="none" height="373.3901" style="stroke:#475569;stroke-width:1.5;" width="1015.2974" x="299.2163" y="374.5669"/><text fill="#000000" font-family="sans-serif" font-size="13" font-weight="bold" lengthAdjust="spacing" textLength="15.1709" x="314.2163" y="390.4648">alt</text><text fill="#111827" font-family="sans-serif" font-size="11" font-weight="bold" lengthAdjust="spacing" textLength="137.5322" x="374.3872" y="389.1729">[expired before execution]</text><polygon fill="#1F2937" points="1152.9072,414.0986,1162.9072,418.0986,1152.9072,422.0986,1156.9072,418.0986" style="stroke:#1F2937;stroke-width:1;"/><line style="stroke:#1F2937;stroke-width:1;" x1="386.2402" x2="1158.9072" y1="418.0986" y2="418.0986"/><text fill="#000000" font-family="sans-serif" font-size="13" lengthAdjust="spacing" textLength="187.1416" x="393.2402" y="413.2422">setException(TimeoutException)</text><line style="stroke:#475569;stroke-width:1;stroke-dasharray:2.0,2.0;" x1="299.2163" x2="1314.5137" y1="427.0986" y2="427.0986"/><text fill="#111827" font-family="sans-serif" font-size="11" font-weight="bold" lengthAdjust="spacing" textLength="42.7754" x="304.2163" y="439.7046">[launch]</text><polygon fill="#1F2937" points="638.9663,462.876,648.9663,466.876,638.9663,470.876,642.9663,466.876" style="stroke:#1F2937;stroke-width:1;"/><line style="stroke:#1F2937;stroke-width:1;" x1="386.2402" x2="644.9663" y1="466.876" y2="466.876"/><text fill="#000000" font-family="sans-serif" font-size="13" lengthAdjust="spacing" textLength="78.0317" x="393.2402" y="462.0195">execute(task)</text><polygon fill="#1F2937" points="1245.6621,494.6304,1255.6621,498.6304,1245.6621,502.6304,1249.6621,498.6304" style="stroke:#1F2937;stroke-width:1;"/><line style="stroke:#1F2937;stroke-width:1;" x1="650.9663" x2="1251.6621" y1="498.6304" y2="498.6304"/><text fill="#000000" font-family="sans-serif" font-size="13" lengthAdjust="spacing" textLength="94.6563" x="657.9663" y="493.7739">async statement</text><polygon fill="#1F2937" points="661.9663,526.3848,651.9663,530.3848,661.9663,534.3848,657.9663,530.3848" style="stroke:#1F2937;stroke-width:1;"/><line style="stroke:#1F2937;stroke-width:1;" x1="655.9663" x2="805.0659" y1="530.3848" y2="530.3848"/><text fill="#000000" font-family="sans-serif" font-size="13" lengthAdjust="spacing" textLength="122.8462" x="667.9663" y="525.5283">withTimeout deadline</text><path d="M563.5493,545.3848 L623.7202,545.3848 L623.7202,555.1392 L613.7202,565.1392 L563.5493,565.1392 L563.5493,545.3848 " fill="#F8FAFC" style="stroke:#475569;stroke-width:1.5;"/><rect fill="none" height="195.5723" style="stroke:#475569;stroke-width:1.5;" width="740.9644" x="563.5493" y="545.3848"/><text fill="#000000" font-family="sans-serif" font-size="13" font-weight="bold" lengthAdjust="spacing" textLength="15.1709" x="578.5493" y="561.2827">alt</text><text fill="#111827" font-family="sans-serif" font-size="11" font-weight="bold" lengthAdjust="spacing" textLength="70.9092" x="638.7202" y="559.9907">[driver result]</text><polygon fill="#1F2937" points="661.9663,584.9165,651.9663,588.9165,661.9663,592.9165,657.9663,588.9165" style="stroke:#1F2937;stroke-width:1;"/><line style="stroke:#1F2937;stroke-width:1;stroke-dasharray:2.0,2.0;" x1="655.9663" x2="1256.6621" y1="588.9165" y2="588.9165"/><text fill="#000000" font-family="sans-serif" font-size="13" lengthAdjust="spacing" textLength="85.979" x="667.9663" y="584.0601">result or failure</text><polygon fill="#1F2937" points="941.7656,616.6709,951.7656,620.6709,941.7656,624.6709,945.7656,620.6709" style="stroke:#1F2937;stroke-width:1;"/><line style="stroke:#1F2937;stroke-width:1;" x1="650.9663" x2="947.7656" y1="620.6709" y2="620.6709"/><text fill="#000000" font-family="sans-serif" font-size="13" lengthAdjust="spacing" textLength="87.4263" x="657.9663" y="615.8145">FutureCallback</text><polygon fill="#1F2937" points="1152.9072,648.4253,1162.9072,652.4253,1152.9072,656.4253,1156.9072,652.4253" style="stroke:#1F2937;stroke-width:1;"/><line style="stroke:#1F2937;stroke-width:1;" x1="953.7656" x2="1158.9072" y1="652.4253" y2="652.4253"/><text fill="#000000" font-family="sans-serif" font-size="13" lengthAdjust="spacing" textLength="102.6099" x="960.7656" y="647.5688">set / setException</text><line style="stroke:#475569;stroke-width:1;stroke-dasharray:2.0,2.0;" x1="563.5493" x2="1304.5137" y1="661.4253" y2="661.4253"/><text fill="#111827" font-family="sans-serif" font-size="11" font-weight="bold" lengthAdjust="spacing" textLength="74.5508" x="568.5493" y="674.0313">[timeout wins]</text><polygon fill="#1F2937" points="941.7656,697.2026,951.7656,701.2026,941.7656,705.2026,945.7656,701.2026" style="stroke:#1F2937;stroke-width:1;"/><line style="stroke:#1F2937;stroke-width:1;" x1="806.0659" x2="947.7656" y1="701.2026" y2="701.2026"/><text fill="#000000" font-family="sans-serif" font-size="13" lengthAdjust="spacing" textLength="85.9854" x="813.0659" y="696.3462">failure callback</text><polygon fill="#1F2937" points="1152.9072,728.957,1162.9072,732.957,1152.9072,736.957,1156.9072,732.957" style="stroke:#1F2937;stroke-width:1;"/><line style="stroke:#1F2937;stroke-width:1;" x1="953.7656" x2="1158.9072" y1="732.957" y2="732.957"/><text fill="#000000" font-family="sans-serif" font-size="13" lengthAdjust="spacing" textLength="187.1416" x="960.7656" y="728.1006">setException(TimeoutException)</text><path d="M299.2163,768.957 L567.4189,768.957 L567.4189,778.7114 L557.4189,788.7114 L299.2163,788.7114 L299.2163,768.957 " fill="#F8FAFC" style="stroke:#475569;stroke-width:1.5;"/><rect fill="none" height="164.772" style="stroke:#475569;stroke-width:1.5;" width="1261.3813" x="299.2163" y="768.957"/><text fill="#000000" font-family="sans-serif" font-size="13" font-weight="bold" lengthAdjust="spacing" textLength="223.2026" x="314.2163" y="784.855">synchronous installation failure gap</text><line style="stroke:#1F2937;stroke-width:1;" x1="386.2402" x2="428.2402" y1="812.4658" y2="812.4658"/><line style="stroke:#1F2937;stroke-width:1;" x1="428.2402" x2="428.2402" y1="812.4658" y2="825.4658"/><line style="stroke:#1F2937;stroke-width:1;" x1="387.2402" x2="428.2402" y1="825.4658" y2="825.4658"/><polygon fill="#1F2937" points="397.2402,821.4658,387.2402,825.4658,397.2402,829.4658,393.2402,825.4658" style="stroke:#1F2937;stroke-width:1;"/><text fill="#000000" font-family="sans-serif" font-size="13" lengthAdjust="spacing" textLength="250.7261" x="393.2402" y="807.6094">execute / withTimeout / addCallback throws</text><line style="stroke:#1F2937;stroke-width:1;" x1="386.2402" x2="428.2402" y1="857.2202" y2="857.2202"/><line style="stroke:#1F2937;stroke-width:1;" x1="428.2402" x2="428.2402" y1="857.2202" y2="870.2202"/><line style="stroke:#1F2937;stroke-width:1;" x1="387.2402" x2="428.2402" y1="870.2202" y2="870.2202"/><polygon fill="#1F2937" points="397.2402,866.2202,387.2402,870.2202,397.2402,874.2202,393.2402,870.2202" style="stroke:#1F2937;stroke-width:1;"/><text fill="#000000" font-family="sans-serif" font-size="13" lengthAdjust="spacing" textLength="216.0742" x="393.2402" y="852.3638">outer catch updates stats and in-flight</text><path d="M1169,883.2202 L1169,928.2202 L1550,928.2202 L1550,893.2202 L1540,883.2202 L1169,883.2202 " fill="#FEFFDD" style="stroke:#181818;stroke-width:0.5;"/><path d="M1540,883.2202 L1540,893.2202 L1550,893.2202 L1540,883.2202 " fill="#FEFFDD" style="stroke:#181818;stroke-width:0.5;"/><text fill="#000000" font-family="sans-serif" font-size="13" lengthAdjust="spacing" textLength="360.5977" x="1175" y="903.1182">The source path does not setException on taskCtx.future here.</text><text fill="#000000" font-family="sans-serif" font-size="13" lengthAdjust="spacing" textLength="223.2725" x="1175" y="920.8726">The caller Future may remain pending.</text><!--SRC=[bLNRRjim37ttLn3TIuijBT8aJHjW0t9fzZ9i1JQWpuf5nq9aoPNa9SMmVnyboucTfW5Mz898XuU7XwHgDqALpB02LYpTh8sk59zhgGryM8QlnEuHDcTSRuLQGyQanVODlbIeKeG_2S3K6BsD7FtbxSDWJ8TFp3YHYf8fDzE6euc0mM3O7usE0CTA7gVBs-KHQAcLQvBq-_UtFiataU4teR2JuMuu7jxFshTl2hrVJfTpGdobqx8JF1oFHdSF-wlpaQSaVTUkA-TXEfhr1ytD2S_7Zuju-vRlRv8uuIJ2d5dB53SCUh0GjcGkpT5yWeKHl_tVNw90NJaW366bzCs59wsbJPBoO29SBAO_82K0cWjW5XPC9zJA2k5YvMKX1yVi1hXlS43CgYn3qoLHshx8thCH3djyhwOct7yyoiiS- -dO3dXG3ClALQREKDVmVWPNrnQmiSxtmMaiFg0R9xhmklosWdaugGyIJafNpBOyJnAo2NfVeXSJiDMg4ExIEtMLCEd0eVBKXZa4AUYEVAGsrivcbPJKuJhOqxJJ4HcwnrsAfHDQWIWAv89ev2k5j87GeqZICQ5b59BueroapGIMUWBahJGDkaJ5_Gfl3IlBGnYqEjKkpR4DXX5uWpXyce31WWdbQJz3Qf3q-iR0HoZOxfa9HrEgz9Oel3cuAuMXp2lCDDM1EqmhNonT7-TutvdBsFdzmHM5XzebgrIQdo2hvseI4s9iLy3LCnWInXvFQ0vULGhMKJ45AXU0pLgrsBR2vSqnHyOblJ01wqkDmstGLh9cWFRgjcXgY1yItyww8yVIwk6Tn9RjXxcXZLj-oZQuwPWNGe9PSPUe2cKZKQl6Gyee2jB_I7g-LoH0-Vdql_rFuj_14hpfkT5ALnP8aoDI5ZQXKR1cvTbHZDsbYjkTkG76-LwjemnRUvQ6WkWmzH-XAkaDG1jcmOOdLQXU9iKwzprLz5A3yHz0PzsdWypC4Qok3Frh9EeSk2OUYkXkENtxOPoxtNLMBpTfmEiOttcVQADUuxergtnTknY412l_0G00]--></g></svg>