<svg xmlns="http://www.w3.org/2000/svg" xmlns:xlink="http://www.w3.org/1999/xlink" contentStyleType="text/css" height="1110px" preserveAspectRatio="none" style="width:2642px;height:1110px;background:#FFFFFF;" version="1.1" viewBox="0 0 2642 1110" width="2642px" zoomAndPan="magnify"><title>MQTT Telemetry - Producer ACK Before Database Completion</title><defs/><g><text fill="#000000" font-family="sans-serif" font-size="14" font-weight="bold" lengthAdjust="spacing" textLength="413.0752" x="1113.5652" y="31.0439">MQTT Telemetry - Producer ACK Before Database Completion</text><rect fill="none" height="146.7949" style="stroke:#475569;stroke-width:1.5;" width="592.4141" x="636.355" y="236.5034"/><line style="stroke:#64748B;stroke-width:0.5;stroke-dasharray:5.0,5.0;" x1="55" x2="55" y1="124.2402" y2="1026.3862"/><line style="stroke:#64748B;stroke-width:0.5;stroke-dasharray:5.0,5.0;" x1="231.7788" x2="231.7788" y1="124.2402" y2="1026.3862"/><line style="stroke:#64748B;stroke-width:0.5;stroke-dasharray:5.0,5.0;" x1="436.7183" x2="436.7183" y1="124.2402" y2="1026.3862"/><line style="stroke:#64748B;stroke-width:0.5;stroke-dasharray:5.0,5.0;" x1="728.355" x2="728.355" y1="124.2402" y2="1026.3862"/><line style="stroke:#64748B;stroke-width:0.5;stroke-dasharray:5.0,5.0;" x1="1006.4521" x2="1006.4521" y1="124.2402" y2="1026.3862"/><line style="stroke:#64748B;stroke-width:0.5;stroke-dasharray:5.0,5.0;" x1="1189.9692" x2="1189.9692" y1="124.2402" y2="1026.3862"/><line style="stroke:#64748B;stroke-width:0.5;stroke-dasharray:5.0,5.0;" x1="1317.769" x2="1317.769" y1="124.2402" y2="1026.3862"/><line style="stroke:#64748B;stroke-width:0.5;stroke-dasharray:5.0,5.0;" x1="1499.9546" x2="1499.9546" y1="124.2402" y2="1026.3862"/><line style="stroke:#64748B;stroke-width:0.5;stroke-dasharray:5.0,5.0;" x1="1690.103" x2="1690.103" y1="124.2402" y2="1026.3862"/><line style="stroke:#64748B;stroke-width:0.5;stroke-dasharray:5.0,5.0;" x1="1907.7256" x2="1907.7256" y1="124.2402" y2="1026.3862"/><line style="stroke:#64748B;stroke-width:0.5;stroke-dasharray:5.0,5.0;" x1="2180.8164" x2="2180.8164" y1="124.2402" y2="1026.3862"/><line style="stroke:#64748B;stroke-width:0.5;stroke-dasharray:5.0,5.0;" x1="2398.0132" x2="2398.0132" y1="124.2402" y2="1026.3862"/><line style="stroke:#64748B;stroke-width:0.5;stroke-dasharray:5.0,5.0;" x1="2563.5161" x2="2563.5161" y1="124.2402" y2="1026.3862"/><text fill="#000000" font-family="sans-serif" font-size="14" lengthAdjust="spacing" textLength="42.793" x="31" y="121.1641">Device</text><ellipse cx="55.3965" cy="53.6201" fill="#E2E2F0" rx="8" ry="8" style="stroke:#181818;stroke-width:0.5;"/><path d="M55.3965,61.6201 L55.3965,88.6201 M42.3965,69.6201 L68.3965,69.6201 M55.3965,88.6201 L42.3965,103.6201 M55.3965,88.6201 L68.3965,103.6201 " fill="none" style="stroke:#181818;stroke-width:0.5;"/><text fill="#000000" font-family="sans-serif" font-size="14" lengthAdjust="spacing" textLength="42.793" x="31" y="1041.4302">Device</text><ellipse cx="55.3965" cy="1053.0063" fill="#E2E2F0" rx="8" ry="8" style="stroke:#181818;stroke-width:0.5;"/><path d="M55.3965,1061.0063 L55.3965,1088.0063 M42.3965,1069.0063 L68.3965,1069.0063 M55.3965,1088.0063 L42.3965,1103.0063 M55.3965,1088.0063 L68.3965,1103.0063 " fill="none" style="stroke:#181818;stroke-width:0.5;"/><rect fill="#EAF2F5" height="33.1201" rx="2.5" ry="2.5" style="stroke:#334155;stroke-width:0.5;" width="117.5098" x="173.7788" y="90.1201"/><text fill="#111827" font-family="sans-serif" font-size="14" lengthAdjust="spacing" textLength="103.5098" x="180.7788" y="113.1641">Netty EventLoop</text><rect fill="#EAF2F5" height="33.1201" rx="2.5" ry="2.5" style="stroke:#334155;stroke-width:0.5;" width="117.5098" x="173.7788" y="1025.3862"/><text fill="#111827" font-family="sans-serif" font-size="14" lengthAdjust="spacing" textLength="103.5098" x="180.7788" y="1048.4302">Netty EventLoop</text><rect fill="#EAF2F5" height="33.1201" rx="2.5" ry="2.5" style="stroke:#334155;stroke-width:0.5;" width="150.165" x="361.7183" y="90.1201"/><text fill="#111827" font-family="sans-serif" font-size="14" lengthAdjust="spacing" textLength="136.165" x="368.7183" y="113.1641">MqttTransportHandler</text><rect fill="#EAF2F5" height="33.1201" rx="2.5" ry="2.5" style="stroke:#334155;stroke-width:0.5;" width="150.165" x="361.7183" y="1025.3862"/><text fill="#111827" font-family="sans-serif" font-size="14" lengthAdjust="spacing" textLength="136.165" x="368.7183" y="1048.4302">MqttTransportHandler</text><rect fill="#EAF2F5" height="33.1201" rx="2.5" ry="2.5" style="stroke:#334155;stroke-width:0.5;" width="164.9512" x="646.355" y="90.1201"/><text fill="#111827" font-family="sans-serif" font-size="14" lengthAdjust="spacing" textLength="150.9512" x="653.355" y="113.1641">DefaultTransportService</text><rect fill="#EAF2F5" height="33.1201" rx="2.5" ry="2.5" style="stroke:#334155;stroke-width:0.5;" width="164.9512" x="646.355" y="1025.3862"/><text fill="#111827" font-family="sans-serif" font-size="14" lengthAdjust="spacing" textLength="150.9512" x="653.355" y="1048.4302">DefaultTransportService</text><path d="M934.4521,95.1201 L1079.8721,95.1201 C1084.8721,95.1201 1084.8721,109.6802 1084.8721,109.6802 C1084.8721,109.6802 1084.8721,124.2402 1079.8721,124.2402 L934.4521,124.2402 C929.4521,124.2402 929.4521,109.6802 929.4521,109.6802 C929.4521,109.6802 929.4521,95.1201 934.4521,95.1201 " fill="#E2E2F0" style="stroke:#181818;stroke-width:0.5;"/><path d="M1079.8721,95.1201 C1074.8721,95.1201 1074.8721,109.6802 1074.8721,109.6802 C1074.8721,124.2402 1079.8721,124.2402 1079.8721,124.2402 " fill="none" style="stroke:#181818;stroke-width:0.5;"/><text fill="#000000" font-family="sans-serif" font-size="14" lengthAdjust="spacing" textLength="135.4199" x="934.4521" y="116.1641">Rule Engine producer</text><path d="M934.4521,1025.3862 L1079.8721,1025.3862 C1084.8721,1025.3862 1084.8721,1039.9463 1084.8721,1039.9463 C1084.8721,1039.9463 1084.8721,1054.5063 1079.8721,1054.5063 L934.4521,1054.5063 C929.4521,1054.5063 929.4521,1039.9463 929.4521,1039.9463 C929.4521,1039.9463 929.4521,1025.3862 934.4521,1025.3862 " fill="#E2E2F0" style="stroke:#181818;stroke-width:0.5;"/><path d="M1079.8721,1025.3862 C1074.8721,1025.3862 1074.8721,1039.9463 1074.8721,1039.9463 C1074.8721,1054.5063 1079.8721,1054.5063 1079.8721,1054.5063 " fill="none" style="stroke:#181818;stroke-width:0.5;"/><text fill="#000000" font-family="sans-serif" font-size="14" lengthAdjust="spacing" textLength="135.4199" x="934.4521" y="1046.4302">Rule Engine producer</text><path d="M1167.9692,95.1201 L1213.769,95.1201 C1218.769,95.1201 1218.769,109.6802 1218.769,109.6802 C1218.769,109.6802 1218.769,124.2402 1213.769,124.2402 L1167.9692,124.2402 C1162.9692,124.2402 1162.9692,109.6802 1162.9692,109.6802 C1162.9692,109.6802 1162.9692,95.1201 1167.9692,95.1201 " fill="#E2E2F0" style="stroke:#181818;stroke-width:0.5;"/><path d="M1213.769,95.1201 C1208.769,95.1201 1208.769,109.6802 1208.769,109.6802 C1208.769,124.2402 1213.769,124.2402 1213.769,124.2402 " fill="none" style="stroke:#181818;stroke-width:0.5;"/><text fill="#000000" font-family="sans-serif" font-size="14" lengthAdjust="spacing" textLength="35.7998" x="1167.9692" y="116.1641">Kafka</text><path d="M1167.9692,1025.3862 L1213.769,1025.3862 C1218.769,1025.3862 1218.769,1039.9463 1218.769,1039.9463 C1218.769,1039.9463 1218.769,1054.5063 1213.769,1054.5063 L1167.9692,1054.5063 C1162.9692,1054.5063 1162.9692,1039.9463 1162.9692,1039.9463 C1162.9692,1039.9463 1162.9692,1025.3862 1167.9692,1025.3862 " fill="#E2E2F0" style="stroke:#181818;stroke-width:0.5;"/><path d="M1213.769,1025.3862 C1208.769,1025.3862 1208.769,1039.9463 1208.769,1039.9463 C1208.769,1054.5063 1213.769,1054.5063 1213.769,1054.5063 " fill="none" style="stroke:#181818;stroke-width:0.5;"/><text fill="#000000" font-family="sans-serif" font-size="14" lengthAdjust="spacing" textLength="35.7998" x="1167.9692" y="1046.4302">Kafka</text><rect fill="#EAF2F5" height="33.1201" rx="2.5" ry="2.5" style="stroke:#334155;stroke-width:0.5;" width="178.1855" x="1228.769" y="90.1201"/><text fill="#111827" font-family="sans-serif" font-size="14" lengthAdjust="spacing" textLength="164.1855" x="1235.769" y="113.1641">transportCallbackExecutor</text><rect fill="#EAF2F5" height="33.1201" rx="2.5" ry="2.5" style="stroke:#334155;stroke-width:0.5;" width="178.1855" x="1228.769" y="1025.3862"/><text fill="#111827" font-family="sans-serif" font-size="14" lengthAdjust="spacing" textLength="164.1855" x="1235.769" y="1048.4302">transportCallbackExecutor</text><rect fill="#EAF2F5" height="33.1201" rx="2.5" ry="2.5" style="stroke:#334155;stroke-width:0.5;" width="166.5166" x="1416.9546" y="90.1201"/><text fill="#111827" font-family="sans-serif" font-size="14" lengthAdjust="spacing" textLength="152.5166" x="1423.9546" y="113.1641">tb-rule-engine-consumer</text><rect fill="#EAF2F5" height="33.1201" rx="2.5" ry="2.5" style="stroke:#334155;stroke-width:0.5;" width="166.5166" x="1416.9546" y="1025.3862"/><text fill="#111827" font-family="sans-serif" font-size="14" lengthAdjust="spacing" textLength="152.5166" x="1423.9546" y="1048.4302">tb-rule-engine-consumer</text><rect fill="#EAF2F5" height="33.1201" rx="2.5" ry="2.5" style="stroke:#334155;stroke-width:0.5;" width="162.6338" x="1609.103" y="90.1201"/><text fill="#111827" font-family="sans-serif" font-size="14" lengthAdjust="spacing" textLength="148.6338" x="1616.103" y="113.1641">App/Tenant/Rule Actors</text><rect fill="#EAF2F5" height="33.1201" rx="2.5" ry="2.5" style="stroke:#334155;stroke-width:0.5;" width="162.6338" x="1609.103" y="1025.3862"/><text fill="#111827" font-family="sans-serif" font-size="14" lengthAdjust="spacing" textLength="148.6338" x="1616.103" y="1048.4302">App/Tenant/Rule Actors</text><rect fill="#EAF2F5" height="33.1201" rx="2.5" ry="2.5" style="stroke:#334155;stroke-width:0.5;" width="158.71" x="1828.7256" y="90.1201"/><text fill="#111827" font-family="sans-serif" font-size="14" lengthAdjust="spacing" textLength="144.71" x="1835.7256" y="113.1641">TbMsgTimeseriesNode</text><rect fill="#EAF2F5" height="33.1201" rx="2.5" ry="2.5" style="stroke:#334155;stroke-width:0.5;" width="158.71" x="1828.7256" y="1025.3862"/><text fill="#111827" font-family="sans-serif" font-size="14" lengthAdjust="spacing" textLength="144.71" x="1835.7256" y="1048.4302">TbMsgTimeseriesNode</text><rect fill="#EAF2F5" height="33.1201" rx="2.5" ry="2.5" style="stroke:#334155;stroke-width:0.5;" width="161.0479" x="2100.8164" y="90.1201"/><text fill="#111827" font-family="sans-serif" font-size="14" lengthAdjust="spacing" textLength="147.0479" x="2107.8164" y="113.1641">BaseTimeseriesService</text><rect fill="#EAF2F5" height="33.1201" rx="2.5" ry="2.5" style="stroke:#334155;stroke-width:0.5;" width="161.0479" x="2100.8164" y="1025.3862"/><text fill="#111827" font-family="sans-serif" font-size="14" lengthAdjust="spacing" textLength="147.0479" x="2107.8164" y="1048.4302">BaseTimeseriesService</text><rect fill="#EAF2F5" height="33.1201" rx="2.5" ry="2.5" style="stroke:#334155;stroke-width:0.5;" width="166.5029" x="2315.0132" y="90.1201"/><text fill="#111827" font-family="sans-serif" font-size="14" lengthAdjust="spacing" textLength="152.5029" x="2322.0132" y="113.1641">SQL/Cassandra workers</text><rect fill="#EAF2F5" height="33.1201" rx="2.5" ry="2.5" style="stroke:#334155;stroke-width:0.5;" width="166.5029" x="2315.0132" y="1025.3862"/><text fill="#111827" font-family="sans-serif" font-size="14" lengthAdjust="spacing" textLength="152.5029" x="2322.0132" y="1048.4302">SQL/Cassandra workers</text><rect fill="#EAF2F5" height="33.1201" rx="2.5" ry="2.5" style="stroke:#334155;stroke-width:0.5;" width="144.6895" x="2491.5161" y="90.1201"/><text fill="#111827" font-family="sans-serif" font-size="14" lengthAdjust="spacing" textLength="130.6895" x="2498.5161" y="113.1641">ts-service-ts-callback</text><rect fill="#EAF2F5" height="33.1201" rx="2.5" ry="2.5" style="stroke:#334155;stroke-width:0.5;" width="144.6895" x="2491.5161" y="1025.3862"/><text fill="#111827" font-family="sans-serif" font-size="14" lengthAdjust="spacing" textLength="130.6895" x="2498.5161" y="1048.4302">ts-service-ts-callback</text><polygon fill="#1F2937" points="220.5337,153.9946,230.5337,157.9946,220.5337,161.9946,224.5337,157.9946" style="stroke:#1F2937;stroke-width:1;"/><line style="stroke:#1F2937;stroke-width:1;" x1="55.3965" x2="226.5337" y1="157.9946" y2="157.9946"/><text fill="#000000" font-family="sans-serif" font-size="13" lengthAdjust="spacing" textLength="153.1372" x="62.3965" y="153.1382">MQTT PUBLISH telemetry</text><polygon fill="#1F2937" points="424.8008,185.749,434.8008,189.749,424.8008,193.749,428.8008,189.749" style="stroke:#1F2937;stroke-width:1;"/><line style="stroke:#1F2937;stroke-width:1;" x1="232.5337" x2="430.8008" y1="189.749" y2="189.749"/><text fill="#000000" font-family="sans-serif" font-size="13" lengthAdjust="spacing" textLength="147.3862" x="239.5337" y="184.8926">processDevicePublish(...)</text><polygon fill="#1F2937" points="716.8306,217.5034,726.8306,221.5034,716.8306,225.5034,720.8306,221.5034" style="stroke:#1F2937;stroke-width:1;"/><line style="stroke:#1F2937;stroke-width:1;" x1="436.8008" x2="722.8306" y1="221.5034" y2="221.5034"/><text fill="#000000" font-family="sans-serif" font-size="13" lengthAdjust="spacing" textLength="268.0298" x="443.8008" y="216.647">process(session, PostTelemetryMsg, callback)</text><path d="M636.355,236.5034 L708.7896,236.5034 L708.7896,246.2578 L698.7896,256.2578 L636.355,256.2578 L636.355,236.5034 " fill="#F8FAFC" style="stroke:#475569;stroke-width:1.5;"/><rect fill="none" height="146.7949" style="stroke:#475569;stroke-width:1.5;" width="592.4141" x="636.355" y="236.5034"/><text fill="#000000" font-family="sans-serif" font-size="13" font-weight="bold" lengthAdjust="spacing" textLength="27.4346" x="651.355" y="252.4014">loop</text><text fill="#111827" font-family="sans-serif" font-size="11" font-weight="bold" lengthAdjust="spacing" textLength="124.6846" x="723.7896" y="251.1094">[each timestamp group]</text><polygon fill="#1F2937" points="995.1621,276.0352,1005.1621,280.0352,995.1621,284.0352,999.1621,280.0352" style="stroke:#1F2937;stroke-width:1;"/><line style="stroke:#1F2937;stroke-width:1;" x1="728.8306" x2="1001.1621" y1="280.0352" y2="280.0352"/><text fill="#000000" font-family="sans-serif" font-size="13" lengthAdjust="spacing" textLength="254.3315" x="735.8306" y="275.1787">send(ToRuleEngineMsg, MsgPackCallback)</text><polygon fill="#1F2937" points="1178.8691,307.7896,1188.8691,311.7896,1178.8691,315.7896,1182.8691,311.7896" style="stroke:#1F2937;stroke-width:1;"/><line style="stroke:#1F2937;stroke-width:1;" x1="1007.1621" x2="1184.8691" y1="311.7896" y2="311.7896"/><text fill="#000000" font-family="sans-serif" font-size="13" lengthAdjust="spacing" textLength="78.7681" x="1014.1621" y="306.9331">provider send</text><polygon fill="#1F2937" points="1018.1621,339.5439,1008.1621,343.5439,1018.1621,347.5439,1014.1621,343.5439" style="stroke:#1F2937;stroke-width:1;"/><line style="stroke:#1F2937;stroke-width:1;stroke-dasharray:2.0,2.0;" x1="1012.1621" x2="1189.8691" y1="343.5439" y2="343.5439"/><text fill="#000000" font-family="sans-serif" font-size="13" lengthAdjust="spacing" textLength="159.707" x="1024.1621" y="338.6875">producer acknowledgement</text><polygon fill="#1F2937" points="739.8306,371.2983,729.8306,375.2983,739.8306,379.2983,735.8306,375.2983" style="stroke:#1F2937;stroke-width:1;"/><line style="stroke:#1F2937;stroke-width:1;stroke-dasharray:2.0,2.0;" x1="733.8306" x2="1006.1621" y1="375.2983" y2="375.2983"/><text fill="#000000" font-family="sans-serif" font-size="13" lengthAdjust="spacing" textLength="171.2598" x="745.8306" y="370.4419">TbQueueCallback.onSuccess</text><polygon fill="#1F2937" points="1305.8618,410.0527,1315.8618,414.0527,1305.8618,418.0527,1309.8618,414.0527" style="stroke:#1F2937;stroke-width:1;"/><line style="stroke:#1F2937;stroke-width:1;" x1="728.8306" x2="1311.8618" y1="414.0527" y2="414.0527"/><text fill="#000000" font-family="sans-serif" font-size="13" lengthAdjust="spacing" textLength="129.3018" x="735.8306" y="409.1963">submit MQTT callback</text><polygon fill="#1F2937" points="447.8008,441.8071,437.8008,445.8071,447.8008,449.8071,443.8008,445.8071" style="stroke:#1F2937;stroke-width:1;"/><line style="stroke:#1F2937;stroke-width:1;" x1="441.8008" x2="1316.8618" y1="445.8071" y2="445.8071"/><text fill="#000000" font-family="sans-serif" font-size="13" lengthAdjust="spacing" textLength="63.5908" x="453.8008" y="440.9507">onSuccess</text><polygon fill="#1F2937" points="243.5337,473.5615,233.5337,477.5615,243.5337,481.5615,239.5337,477.5615" style="stroke:#1F2937;stroke-width:1;"/><line style="stroke:#1F2937;stroke-width:1;" x1="237.5337" x2="435.8008" y1="477.5615" y2="477.5615"/><text fill="#000000" font-family="sans-serif" font-size="13" lengthAdjust="spacing" textLength="180.2671" x="249.5337" y="472.7051">write PUBACK when msgId &gt; 0</text><polygon fill="#1F2937" points="66.3965,505.3159,56.3965,509.3159,66.3965,513.3159,62.3965,509.3159" style="stroke:#1F2937;stroke-width:1;"/><line style="stroke:#1F2937;stroke-width:1;stroke-dasharray:2.0,2.0;" x1="60.3965" x2="231.5337" y1="509.3159" y2="509.3159"/><text fill="#000000" font-family="sans-serif" font-size="13" lengthAdjust="spacing" textLength="130.0444" x="72.3965" y="504.4595">PUBACK (QoS 1 only)</text><polygon fill="#1F2937" points="1201.8691,537.0703,1191.8691,541.0703,1201.8691,545.0703,1197.8691,541.0703" style="stroke:#1F2937;stroke-width:1;"/><line style="stroke:#1F2937;stroke-width:1;" x1="1195.8691" x2="1499.2129" y1="541.0703" y2="541.0703"/><text fill="#000000" font-family="sans-serif" font-size="13" lengthAdjust="spacing" textLength="96.0972" x="1207.8691" y="536.2139">poll records later</text><polygon fill="#1F2937" points="1488.2129,568.8247,1498.2129,572.8247,1488.2129,576.8247,1492.2129,572.8247" style="stroke:#1F2937;stroke-width:1;"/><line style="stroke:#1F2937;stroke-width:1;stroke-dasharray:2.0,2.0;" x1="1190.8691" x2="1494.2129" y1="572.8247" y2="572.8247"/><text fill="#000000" font-family="sans-serif" font-size="13" lengthAdjust="spacing" textLength="83.8208" x="1197.8691" y="567.9683">message pack</text><polygon fill="#1F2937" points="1678.4199,600.5791,1688.4199,604.5791,1678.4199,608.5791,1682.4199,604.5791" style="stroke:#1F2937;stroke-width:1;"/><line style="stroke:#1F2937;stroke-width:1;" x1="1500.2129" x2="1684.4199" y1="604.5791" y2="604.5791"/><text fill="#000000" font-family="sans-serif" font-size="13" lengthAdjust="spacing" textLength="166.207" x="1507.2129" y="599.7227">tell QueueToRuleEngineMsg</text><polygon fill="#1F2937" points="1896.0806,632.3335,1906.0806,636.3335,1896.0806,640.3335,1900.0806,636.3335" style="stroke:#1F2937;stroke-width:1;"/><line style="stroke:#1F2937;stroke-width:1;" x1="1690.4199" x2="1902.0806" y1="636.3335" y2="636.3335"/><text fill="#000000" font-family="sans-serif" font-size="13" lengthAdjust="spacing" textLength="96.0718" x="1697.4199" y="631.4771">onMsg(ctx, msg)</text><polygon fill="#1F2937" points="2169.3403,664.0879,2179.3403,668.0879,2169.3403,672.0879,2173.3403,668.0879" style="stroke:#1F2937;stroke-width:1;"/><line style="stroke:#1F2937;stroke-width:1;" x1="1908.0806" x2="2175.3403" y1="668.0879" y2="668.0879"/><text fill="#000000" font-family="sans-serif" font-size="13" lengthAdjust="spacing" textLength="249.2598" x="1915.0806" y="663.2314">saveAndNotify(..., TelemetryNodeCallback)</text><polygon fill="#1F2937" points="1701.4199,695.8423,1691.4199,699.8423,1701.4199,703.8423,1697.4199,699.8423" style="stroke:#1F2937;stroke-width:1;"/><line style="stroke:#1F2937;stroke-width:1;stroke-dasharray:2.0,2.0;" x1="1695.4199" x2="1907.0806" y1="699.8423" y2="699.8423"/><text fill="#000000" font-family="sans-serif" font-size="13" lengthAdjust="spacing" textLength="193.6606" x="1707.4199" y="694.9858">return; message remains pending</text><polygon fill="#1F2937" points="2386.2646,727.5967,2396.2646,731.5967,2386.2646,735.5967,2390.2646,731.5967" style="stroke:#1F2937;stroke-width:1;"/><line style="stroke:#1F2937;stroke-width:1;" x1="2181.3403" x2="2392.2646" y1="731.5967" y2="731.5967"/><text fill="#000000" font-family="sans-serif" font-size="13" lengthAdjust="spacing" textLength="192.9243" x="2188.3403" y="726.7402">partition + history + latest Futures</text><polygon fill="#1F2937" points="2192.3403,759.3511,2182.3403,763.3511,2192.3403,767.3511,2188.3403,763.3511" style="stroke:#1F2937;stroke-width:1;"/><line style="stroke:#1F2937;stroke-width:1;stroke-dasharray:2.0,2.0;" x1="2186.3403" x2="2397.2646" y1="763.3511" y2="763.3511"/><text fill="#000000" font-family="sans-serif" font-size="13" lengthAdjust="spacing" textLength="189.3252" x="2198.3403" y="758.4946">aggregate Future success/failure</text><polygon fill="#1F2937" points="2551.8608,791.1055,2561.8608,795.1055,2551.8608,799.1055,2555.8608,795.1055" style="stroke:#1F2937;stroke-width:1;"/><line style="stroke:#1F2937;stroke-width:1;" x1="2181.3403" x2="2557.8608" y1="795.1055" y2="795.1055"/><text fill="#000000" font-family="sans-serif" font-size="13" lengthAdjust="spacing" textLength="101.1563" x="2188.3403" y="790.249">run main callback</text><polygon fill="#1F2937" points="1701.4199,822.8599,1691.4199,826.8599,1701.4199,830.8599,1697.4199,826.8599" style="stroke:#1F2937;stroke-width:1;"/><line style="stroke:#1F2937;stroke-width:1;" x1="1695.4199" x2="2562.8608" y1="826.8599" y2="826.8599"/><text fill="#000000" font-family="sans-serif" font-size="13" lengthAdjust="spacing" textLength="132.939" x="1707.4199" y="822.0034">tellSuccess / tellFailure</text><polygon fill="#1F2937" points="1511.2129,854.6143,1501.2129,858.6143,1511.2129,862.6143,1507.2129,858.6143" style="stroke:#1F2937;stroke-width:1;"/><line style="stroke:#1F2937;stroke-width:1;stroke-dasharray:2.0,2.0;" x1="1505.2129" x2="1689.4199" y1="858.6143" y2="858.6143"/><text fill="#000000" font-family="sans-serif" font-size="13" lengthAdjust="spacing" textLength="139.4326" x="1517.2129" y="853.7578">terminal TbMsgCallback</text><line style="stroke:#1F2937;stroke-width:1;" x1="1500.2129" x2="1542.2129" y1="890.3687" y2="890.3687"/><line style="stroke:#1F2937;stroke-width:1;" x1="1542.2129" x2="1542.2129" y1="890.3687" y2="903.3687"/><line style="stroke:#1F2937;stroke-width:1;" x1="1501.2129" x2="1542.2129" y1="903.3687" y2="903.3687"/><polygon fill="#1F2937" points="1511.2129,899.3687,1501.2129,903.3687,1511.2129,907.3687,1507.2129,903.3687" style="stroke:#1F2937;stroke-width:1;"/><text fill="#000000" font-family="sans-serif" font-size="13" lengthAdjust="spacing" textLength="161.1416" x="1507.2129" y="885.5122">analyze processing strategy</text><polygon fill="#1F2937" points="1201.8691,931.123,1191.8691,935.123,1201.8691,939.123,1197.8691,935.123" style="stroke:#1F2937;stroke-width:1;"/><line style="stroke:#1F2937;stroke-width:1;" x1="1195.8691" x2="1499.2129" y1="935.123" y2="935.123"/><text fill="#000000" font-family="sans-serif" font-size="13" lengthAdjust="spacing" textLength="215.2871" x="1207.8691" y="930.2666">commitSync when decision is commit</text><path d="M5,948.123 L5,1011.123 L2450,1011.123 L2450,958.123 L2440,948.123 L5,948.123 " fill="#FEFFDD" style="stroke:#181818;stroke-width:0.5;"/><path d="M2440,948.123 L2440,958.123 L2450,958.123 L2440,948.123 " fill="#FEFFDD" style="stroke:#181818;stroke-width:0.5;"/><text fill="#000000" font-family="sans-serif" font-size="13" lengthAdjust="spacing" textLength="456.6885" x="994.9138" y="968.021">QoS 1 PUBACK only confirms successful production to the Rule Engine queue.</text><text fill="#000000" font-family="sans-serif" font-size="13" lengthAdjust="spacing" textLength="403.9268" x="994.9138" y="985.7754">It does not wait for Rule Engine consumption or telemetry persistence.</text><text fill="#000000" font-family="sans-serif" font-size="13" lengthAdjust="spacing" textLength="238.4624" x="994.9138" y="1003.5298">QoS 0 has no PUBACK completion point.</text><!--SRC=[VLRRRkCs47tdLmpI5mVrPPtB9d611MmdxWRh14xjVW0jZMKY4gabANkzHV-zGqhKnHlK3uP47ixjd1dAl0kPSyqpsFBeFT6gaF5SfKh3Rml_OwP6c3sFrL7817OyDTZUmUy5oWZX7mOmrLeTAnlZnTN3zHqjhhYs8X8vbtQcT8ow0bnVtunlRyy0vv4yJHTNYpFGGaaRd8p7zrVEoLBiS2aaTZnylhcxkP-rTtz9z7unNSm9yIUjvft3DtUtjvyVwgt_F_bHIA_ATiDvcDxEnjTXvuEQtpqzLhk_slkNCIjiYl3ojjd01bFCqEeJ362bLLn4g64w_mOpt2cDyCWjttA3C5TPdg8LIZB68qi67_4W8cHvKq-uU4LhJ_1qG6cNIkKNm0tujGxivRkr6ysboPMsNxcCKt9AIBVU0JxYZXTfWrsZTZuTjbvZ99i2uUAlWd9waWcn0tcLYVSVqgg0t_ZkdNUZji7MdAUfq_3J3umAol6Yusc-FJks7MXoEa3lT10fQOgiSZglNhedfda-sg2avv4FT-eAQVo1yh43tsnVJB8H6HhK0ishYilC_LC7EIE66c2xIk6b6yVwRJcQSsEez9h3KUbthC88V9zbQWQcj3EWnwYgKbaT4uh6MAa867mfEP-K4blzFLi-hx-23L9ZfKe8vWYVEBOYDAOylIgsgJ3xtd0ul6Hkt-5g2cfmpz0VYR4FAsLihM8gM1z2V9Si9Gq2ycWFrbN7yYm7roivTKTjqpa86fdG699nRwCSFQMOl4dwMv75UMqPccwXurvJFhQ3e3RrHWZYbs7GiH-a2MH6gcEASKAXIzkns4rvitrpoWtEXqgkYyWLWJatdJnQMgLKYcqcR4b2g0bh8He66ekXuXM1HoqiEWRTI3ZkKK9cakSOli2dm2A1I-Oc0TTxKsiOaz7qTCbOw8HsdLIQWiQ8Pfg1b5jgawPK0Jy1OipmXBhPnTqsK_RAn2ag1L-RCy9OYV0LyTtYKgJrNcH_z5qAbwnSBn5LZr35-06dCgR1ANOd9y5-Co0TlE4_76z5ez4MMlvHXwqnuq8Qo8abkl1OxSSv3Nr6nN2DvkOg_0vxOSZMYPvSLOo5HK4sqR1w30-w0VCaqPWGja8Ivvx7qOwBbDwxJfjUfMWBufBYQocZtZslSIKE6FctHMKwrBZ36N6P2SdJSdZLew7DNWFc13pznD3Jxgl0q2osc9m-aasaCjBp-YIZKeenHiBD012cscDCqfq7we3XUkhN0wqKPILHfqqw8tT2PoOKRLUaLNjwEgm2kqTetol-1XcoPmknGWFa38wSMeokoWwkl0foRuQswib7Mj26E7RVEKCVqIVOSsSe11RLronrYP1sw7hSEKBs7m00]--></g></svg>